<svg width="144" height="28" viewBox="0 0 144 28" fill="none" xmlns="http://www.w3.org/2000/svg">
<path d="M47.6433 8.08004H40.716V2.2168H38.2979V16.6274H40.716V10.2413H47.6433V16.6274H50.0615V2.2168H47.6433V8.08004Z" fill="#0D468B"/>
<path d="M59.9833 7.17349C59.265 6.74822 58.4329 6.53906 57.494 6.53906C56.5552 6.53906 55.652 6.76216 54.8554 7.21532C54.0659 7.66849 53.4401 8.282 52.9778 9.05587C52.5155 9.82973 52.2808 10.7082 52.2808 11.6772C52.2808 12.6463 52.5155 13.5317 52.9849 14.3126C53.4543 15.0934 54.0944 15.7069 54.8981 16.1531C55.7018 16.5993 56.6121 16.8224 57.6221 16.8224C58.4044 16.8224 59.1512 16.676 59.8482 16.3902C60.5452 16.1043 61.1426 15.679 61.6334 15.1143L60.1611 13.6503C59.8553 13.9919 59.4784 14.2568 59.0374 14.4311C58.5964 14.6124 58.1199 14.696 57.6007 14.696C56.9962 14.696 56.4628 14.5705 56.0076 14.3126C55.5453 14.0616 55.1897 13.6991 54.9336 13.2319C54.8127 13.0089 54.7203 12.7648 54.6634 12.5139H62.181C62.2237 12.3047 62.2521 12.1165 62.2735 11.9491C62.2948 11.7749 62.3019 11.6075 62.3019 11.4472C62.3019 10.499 62.0957 9.65544 61.6832 8.91643C61.2706 8.17743 60.7017 7.5918 59.9833 7.16652V7.17349ZM54.9123 10.0249C55.147 9.57875 55.4884 9.23016 55.9222 8.98615C56.3561 8.74214 56.8682 8.61665 57.4585 8.61665C58.0488 8.61665 58.4898 8.72819 58.8738 8.94432C59.2579 9.16044 59.5566 9.48114 59.77 9.89248C59.8838 10.1225 59.9691 10.3875 60.026 10.6733H54.6705C54.7274 10.4432 54.8056 10.2201 54.9123 10.0249Z" fill="#0D468B"/>
<path d="M71.4622 7.84975C71.1706 7.52208 70.8292 7.23624 70.4238 7.02011C69.8264 6.69941 69.1436 6.53906 68.3755 6.53906C67.4651 6.53906 66.6401 6.76913 65.9075 7.22927C65.1749 7.6894 64.5917 8.30989 64.165 9.08375C63.7383 9.85762 63.5249 10.7361 63.5249 11.7121C63.5249 12.6882 63.7383 13.5387 64.165 14.3195C64.5917 15.0934 65.1749 15.7069 65.9075 16.1601C66.6401 16.6132 67.4651 16.8433 68.3755 16.8433C69.1436 16.8433 69.8335 16.683 70.4309 16.3623C70.8363 16.1461 71.1706 15.8742 71.4622 15.5466V16.6411H73.7737V6.75519H71.4622V7.8637V7.84975ZM70.8221 13.8455C70.2958 14.4102 69.6059 14.689 68.7524 14.689C68.1905 14.689 67.6998 14.5636 67.2731 14.3056C66.8463 14.0546 66.512 13.6991 66.2631 13.2459C66.0213 12.7927 65.8933 12.2698 65.8933 11.6842C65.8933 11.0986 66.0142 10.5757 66.2631 10.1225C66.5049 9.66938 66.8463 9.31382 67.2731 9.06284C67.6998 8.81185 68.1905 8.67939 68.7524 8.67939C69.3143 8.67939 69.8264 8.80488 70.2531 9.06284C70.6798 9.31382 71.0141 9.66938 71.2488 10.1225C71.4906 10.5757 71.6044 11.0986 71.6044 11.6842C71.6044 12.5627 71.3413 13.2808 70.815 13.8455H70.8221Z" fill="#0D468B"/>
<path d="M78.6528 1.80566H76.3413V16.6276H78.6528V1.80566Z" fill="#0D468B"/>
<path d="M85.0536 2.62793H82.7421V6.74127H80.3311V8.80491H82.7421V16.6272H85.0536V8.80491H87.4718V6.74127H85.0536V2.62793Z" fill="#0D468B"/>
<path d="M96.4833 7.03448C95.893 6.70681 95.2245 6.53949 94.4706 6.53949C93.7167 6.53949 93.0623 6.70681 92.4649 7.04145C92.0737 7.26455 91.7466 7.54342 91.4692 7.86412V1.80566H89.1577V16.6276H91.4692V10.9247C91.4692 10.4855 91.5688 10.0951 91.7608 9.75347C91.9599 9.41185 92.2302 9.13995 92.5787 8.95171C92.9272 8.7565 93.3255 8.66587 93.7736 8.66587C94.4492 8.66587 94.9969 8.882 95.4236 9.30727C95.8503 9.73255 96.0637 10.2763 96.0637 10.9317V16.6346H98.3752V10.4367C98.3752 9.6698 98.2045 8.99354 97.8702 8.40792C97.5359 7.82229 97.0736 7.36913 96.4833 7.04145V7.03448Z" fill="#0D468B"/>
<path d="M107.529 6.74121L104.798 13.1831L102.216 6.74121H99.6768L103.51 15.6302L100.978 20.7475H103.539L105.409 16.7317L110.096 6.74121H107.529Z" fill="#0D468B"/>
<path d="M118.41 7.85018C118.118 7.5225 117.777 7.23666 117.372 7.02054C116.774 6.69984 116.091 6.53949 115.323 6.53949C114.413 6.53949 113.588 6.76955 112.855 7.22969C112.123 7.68983 111.539 8.31031 111.113 9.08418C110.686 9.85804 110.473 10.7365 110.473 11.7125C110.473 12.6886 110.686 13.5391 111.113 14.32C111.539 15.0938 112.123 15.7073 112.855 16.1605C113.588 16.6137 114.413 16.8437 115.323 16.8437C116.091 16.8437 116.781 16.6834 117.379 16.3627C117.784 16.1466 118.118 15.8747 118.41 15.547V16.6416H120.721V1.80566H118.41V7.85715V7.85018ZM117.201 14.313C116.774 14.564 116.276 14.6964 115.7 14.6964C115.124 14.6964 114.648 14.5709 114.221 14.313C113.794 14.062 113.46 13.7065 113.211 13.2533C112.969 12.8001 112.841 12.2772 112.841 11.6916C112.841 11.106 112.962 10.5831 113.211 10.1299C113.453 9.67678 113.794 9.32122 114.221 9.07023C114.648 8.81925 115.138 8.68679 115.7 8.68679C116.262 8.68679 116.774 8.81228 117.201 9.07023C117.628 9.32122 117.962 9.67678 118.197 10.1299C118.438 10.5831 118.552 11.106 118.552 11.6916C118.552 12.2772 118.431 12.8071 118.197 13.2533C117.962 13.7065 117.628 14.062 117.201 14.313Z" fill="#4582B9"/>
<path d="M130.174 7.84975C129.882 7.52208 129.541 7.23624 129.135 7.02011C128.538 6.69941 127.855 6.53906 127.087 6.53906C126.177 6.53906 125.351 6.76913 124.619 7.22927C123.886 7.6894 123.303 8.30989 122.876 9.08375C122.45 9.85762 122.236 10.7361 122.236 11.7121C122.236 12.6882 122.45 13.5387 122.876 14.3195C123.303 15.0934 123.886 15.7069 124.619 16.1601C125.351 16.6132 126.177 16.8433 127.087 16.8433C127.855 16.8433 128.545 16.683 129.142 16.3623C129.548 16.1461 129.882 15.8742 130.174 15.5466V16.6411H132.485V6.75519H130.174V7.8637V7.84975ZM129.534 13.8455C129.007 14.4102 128.317 14.689 127.464 14.689C126.902 14.689 126.411 14.5636 125.984 14.3056C125.558 14.0546 125.223 13.6991 124.975 13.2459C124.726 12.7927 124.605 12.2698 124.605 11.6842C124.605 11.0986 124.726 10.5757 124.975 10.1225C125.223 9.66938 125.558 9.31382 125.984 9.06284C126.411 8.81185 126.902 8.67939 127.464 8.67939C128.026 8.67939 128.538 8.80488 128.965 9.06284C129.391 9.31382 129.726 9.66938 129.96 10.1225C130.202 10.5757 130.316 11.0986 130.316 11.6842C130.316 12.5627 130.053 13.2808 129.526 13.8455H129.534Z" fill="#4582B9"/>
<path d="M141.432 6.74121L138.701 13.1831L136.12 6.74121H133.581L137.414 15.6302L134.882 20.7475H137.443L139.313 16.7317L144 6.74121H141.432Z" fill="#4582B9"/>
<path d="M40.3319 23.7735H38.7103V22.3164H38.2124V25.7256H38.7103V24.2058H40.3319V25.7256H40.8297V22.3164H40.3319V23.7735Z" fill="#FE961B"/>
<path d="M41.9819 25.7256H43.8738V25.2864H42.4869V24.2267H43.7387V23.7944H42.4869V22.7487H43.8738V22.3164H41.9819V25.7256Z" fill="#FE961B"/>
<path d="M45.9291 22.3584L44.6631 25.7188H45.1965L45.4881 24.9519H46.8679L47.1595 25.7188H47.6929L46.434 22.3584H45.9433H45.9291ZM45.6446 24.5127L46.1709 23.0904L46.6972 24.5127H45.6375H45.6446Z" fill="#FE961B"/>
<path d="M49.0728 22.3164H48.5679V25.7256H50.2535V25.2933H49.0728V22.3164Z" fill="#FE961B"/>
<path d="M50.8862 22.7556H51.8037V25.7256H52.3087V22.7556H53.2262V22.3164H50.8862V22.7556Z" fill="#FE961B"/>
<path d="M56.2635 23.7735H54.6419V22.3164H54.144V25.7256H54.6419V24.2058H56.2635V25.7256H56.7614V22.3164H56.2635V23.7735Z" fill="#FE961B"/>
<path d="M57.4722 26.3951H57.8705L58.4252 25.0146H57.8705L57.4722 26.3951Z" fill="#FE961B"/>
<path d="M63.2762 23.7735H61.6617V22.3164H61.1567V25.7256H61.6617V24.2058H63.2762V25.7256H63.7812V22.3164H63.2762V23.7735Z" fill="#FE961B"/>
<path d="M65.9291 22.3584L64.6631 25.7188H65.1965L65.481 24.9519H66.8608L67.1453 25.7188H67.6787L66.4127 22.3584H65.922H65.9291ZM65.6446 24.5127L66.1709 23.0904L66.6972 24.5127H65.6375H65.6446Z" fill="#FE961B"/>
<path d="M69.6558 22.3165H68.5747V25.7188H69.0797V24.3384H69.6558C70.0469 24.3384 70.3457 24.2477 70.5519 24.0595C70.7511 23.8712 70.8577 23.6272 70.8577 23.3274C70.8577 23.0277 70.7511 22.7767 70.5519 22.5884C70.3457 22.4072 70.0469 22.3096 69.6629 22.3096L69.6558 22.3165ZM69.6558 23.8922H69.0797V22.7558H69.6558C69.9047 22.7558 70.0825 22.8046 70.1892 22.9022C70.2959 22.9998 70.3457 23.1392 70.3457 23.3344C70.3457 23.7179 70.1252 23.8991 69.6558 23.8991V23.8922Z" fill="#FE961B"/>
<path d="M72.8848 22.3165H71.8037V25.7188H72.3087V24.3384H72.8919C73.2831 24.3384 73.5818 24.2477 73.788 24.0595C73.9943 23.8712 74.0939 23.6272 74.0939 23.3274C74.0939 23.0277 73.9872 22.7767 73.788 22.5884C73.5889 22.4072 73.2831 22.3096 72.899 22.3096L72.8848 22.3165ZM72.8848 23.8922H72.3016V22.7558H72.8848C73.1337 22.7558 73.3115 22.8046 73.4182 22.9022C73.5249 22.9998 73.5747 23.1392 73.5747 23.3344C73.5747 23.7179 73.3542 23.8991 72.8848 23.8991V23.8922Z" fill="#FE961B"/>
<path d="M75.5377 22.3164H75.0327V25.7186H75.5377V22.3164Z" fill="#FE961B"/>
<path d="M78.8374 24.8402L77.1376 22.3164H76.6753V25.7256H77.1803V23.1948L78.873 25.7256H79.3353V22.3164H78.8374V24.8402Z" fill="#FE961B"/>
<path d="M80.4805 25.7256H82.3794V25.2864H80.9854V24.2267H82.2372V23.7944H80.9854V22.7487H82.3794V22.3164H80.4805V25.7256Z" fill="#FE961B"/>
<path d="M85.1321 23.9753C84.997 23.9195 84.8192 23.8567 84.5987 23.801C84.4138 23.7522 84.2715 23.7034 84.1648 23.6685C84.0653 23.6267 83.987 23.5779 83.923 23.5012C83.8661 23.4315 83.8377 23.3408 83.8377 23.2293C83.8377 23.0759 83.8946 22.9574 84.0013 22.8737C84.1151 22.7831 84.2644 22.7343 84.4422 22.7343C84.6343 22.7343 84.7836 22.7831 84.8974 22.8667C85.0112 22.9574 85.0681 23.055 85.0894 23.1665L85.1037 23.2362H85.63L85.6157 23.1456C85.5873 22.8946 85.4664 22.6855 85.2601 22.5251C85.061 22.3648 84.7907 22.2881 84.4707 22.2881C84.2502 22.2881 84.0511 22.3299 83.8804 22.4066C83.7026 22.4903 83.5674 22.6018 83.475 22.7482C83.3754 22.8946 83.3256 23.055 83.3256 23.2432C83.3256 23.4593 83.3754 23.6406 83.4821 23.7731C83.5816 23.8986 83.7025 23.9962 83.8448 24.0589C83.9799 24.1147 84.1577 24.1774 84.3782 24.2332C84.5631 24.282 84.7125 24.3238 84.8121 24.3657C84.9045 24.4005 84.9828 24.4563 85.0468 24.533C85.1037 24.6027 85.1321 24.6933 85.1321 24.8119C85.1321 24.9583 85.0752 25.0768 84.9685 25.1744C84.8547 25.272 84.6912 25.3208 84.492 25.3208C84.2715 25.3208 84.1079 25.272 84.0013 25.1674C83.8946 25.0628 83.8306 24.9443 83.8163 24.8049V24.7282H83.29V24.8188C83.2972 25.0001 83.354 25.1604 83.4607 25.3069C83.5674 25.4533 83.7097 25.5648 83.8875 25.6485C84.0653 25.7252 84.2715 25.767 84.4991 25.767C84.7267 25.767 84.9401 25.7182 85.1179 25.6345C85.2886 25.5439 85.4237 25.4254 85.5162 25.272C85.6086 25.1186 85.6513 24.9652 85.6513 24.7979C85.6513 24.5818 85.6015 24.4075 85.4948 24.275C85.3953 24.1495 85.2744 24.0519 85.125 23.9892L85.1321 23.9753Z" fill="#FE961B"/>
<path d="M88.4036 23.9753C88.2685 23.9195 88.0907 23.8567 87.8702 23.801C87.6853 23.7522 87.543 23.7034 87.4363 23.6685C87.3368 23.6267 87.2585 23.5779 87.1945 23.5012C87.1376 23.4315 87.1092 23.3408 87.1092 23.2293C87.1092 23.0759 87.1661 22.9574 87.2727 22.8737C87.3865 22.7831 87.5359 22.7343 87.7137 22.7343C87.9057 22.7343 88.0551 22.7831 88.1689 22.8667C88.2827 22.9574 88.3396 23.055 88.3609 23.1665L88.3751 23.2362H88.9015L88.8872 23.1456C88.8588 22.8946 88.7379 22.6855 88.5316 22.5251C88.3325 22.3648 88.0622 22.2881 87.7422 22.2881C87.5217 22.2881 87.3225 22.3299 87.1518 22.4066C86.974 22.4903 86.8389 22.6018 86.7464 22.7482C86.6469 22.8946 86.5971 23.055 86.5971 23.2432C86.5971 23.4593 86.6469 23.6406 86.7536 23.7731C86.8531 23.8986 86.974 23.9962 87.1163 24.0589C87.2514 24.1147 87.4292 24.1774 87.6497 24.2332C87.8346 24.282 87.984 24.3238 88.0835 24.3657C88.176 24.4005 88.2542 24.4563 88.3182 24.533C88.3751 24.6027 88.4036 24.6933 88.4036 24.8119C88.4036 24.9583 88.3467 25.0768 88.24 25.1744C88.1262 25.272 87.9626 25.3208 87.7635 25.3208C87.543 25.3208 87.3794 25.272 87.2727 25.1674C87.1661 25.0628 87.1021 24.9443 87.0878 24.8049V24.7282H86.5615V24.8188C86.5686 25.0001 86.6255 25.1604 86.7322 25.3069C86.8389 25.4533 86.9811 25.5648 87.159 25.6485C87.3368 25.7252 87.543 25.767 87.7706 25.767C87.9982 25.767 88.2116 25.7182 88.3894 25.6345C88.5601 25.5439 88.6952 25.4254 88.7877 25.272C88.8801 25.1186 88.9228 24.9652 88.9228 24.7979C88.9228 24.5818 88.873 24.4075 88.7663 24.275C88.6667 24.1495 88.5458 24.0519 88.3965 23.9892L88.4036 23.9753Z" fill="#FE961B"/>
<path d="M92.8202 22.3584L91.5542 25.7188H92.0876L92.3721 24.9519H93.7519L94.0364 25.7188H94.5698L93.3038 22.3584H92.8131H92.8202ZM92.5357 24.5127L93.062 23.0904L93.5883 24.5127H92.5286H92.5357Z" fill="#FE961B"/>
<path d="M97.6211 24.8402L95.9213 22.3164H95.459V25.7256H95.9639V23.1948L97.6567 25.7256H98.119V22.3164H97.6211V24.8402Z" fill="#FE961B"/>
<path d="M101.305 22.5254C101.035 22.393 100.708 22.3232 100.324 22.3232H99.2642V25.7255H100.324C100.701 25.7255 101.028 25.6557 101.298 25.5233C101.576 25.3908 101.789 25.1886 101.931 24.9307C102.073 24.6797 102.152 24.3729 102.152 24.0243C102.152 23.6758 102.081 23.369 101.931 23.1111C101.782 22.8531 101.569 22.6579 101.298 22.5185L101.305 22.5254ZM101.32 24.9586C101.099 25.1747 100.765 25.2862 100.331 25.2862H99.7691V22.7555H100.331C100.765 22.7555 101.099 22.867 101.32 23.0901C101.54 23.3132 101.654 23.627 101.654 24.0313C101.654 24.4357 101.54 24.7424 101.32 24.9586Z" fill="#FE961B"/>
<path d="M105.964 22.8878C106.142 22.7832 106.348 22.7344 106.576 22.7344C106.832 22.7344 107.052 22.7902 107.23 22.9087C107.408 23.0203 107.543 23.1806 107.628 23.3828L107.649 23.4316H108.218L108.176 23.32C108.048 22.9924 107.849 22.7344 107.571 22.5531C107.294 22.3719 106.96 22.2812 106.576 22.2812C106.263 22.2812 105.971 22.3579 105.715 22.5043C105.459 22.6508 105.253 22.8599 105.103 23.1248C104.954 23.3898 104.883 23.6895 104.883 24.0172C104.883 24.3449 104.961 24.6447 105.103 24.9096C105.253 25.1745 105.459 25.3767 105.715 25.5231C105.971 25.6695 106.263 25.7462 106.576 25.7462C106.96 25.7462 107.287 25.6556 107.564 25.4813C107.842 25.3 108.048 25.049 108.176 24.7214L108.218 24.6098H107.649L107.628 24.6586C107.543 24.8608 107.408 25.0142 107.23 25.1257C107.052 25.2373 106.832 25.293 106.576 25.293C106.348 25.293 106.149 25.2442 105.964 25.1397C105.786 25.0351 105.644 24.8887 105.537 24.6935C105.43 24.4983 105.381 24.2682 105.381 24.0102C105.381 23.7523 105.43 23.5222 105.537 23.327C105.637 23.1318 105.779 22.9854 105.957 22.8808L105.964 22.8878Z" fill="#FE961B"/>
<path d="M111.675 22.5043C111.412 22.3579 111.12 22.2812 110.793 22.2812C110.466 22.2812 110.181 22.3579 109.918 22.5043C109.655 22.6508 109.449 22.8599 109.299 23.1248C109.15 23.3898 109.072 23.6895 109.072 24.0172C109.072 24.3449 109.15 24.6516 109.299 24.9096C109.449 25.1745 109.655 25.3837 109.918 25.5301C110.181 25.6765 110.473 25.7532 110.793 25.7532C111.113 25.7532 111.412 25.6765 111.675 25.5301C111.938 25.3837 112.144 25.1745 112.294 24.9096C112.443 24.6447 112.514 24.3449 112.514 24.0172C112.514 23.6895 112.436 23.3828 112.294 23.1248C112.144 22.8599 111.938 22.6508 111.675 22.5043ZM111.846 24.7004C111.739 24.8957 111.597 25.0421 111.419 25.1466C111.234 25.2512 111.028 25.3 110.8 25.3C110.572 25.3 110.366 25.2512 110.181 25.1466C110.003 25.0421 109.854 24.8957 109.755 24.7004C109.648 24.5052 109.591 24.2752 109.591 24.0172C109.591 23.7593 109.648 23.5292 109.755 23.334C109.861 23.1388 110.003 22.9924 110.181 22.8878C110.366 22.7832 110.572 22.7344 110.8 22.7344C111.028 22.7344 111.234 22.7832 111.419 22.8878C111.597 22.9924 111.746 23.1388 111.846 23.334C111.952 23.5292 112.009 23.7593 112.009 24.0172C112.009 24.2752 111.952 24.5052 111.846 24.7004Z" fill="#FE961B"/>
<path d="M115.21 25.0077L114.008 22.3584H113.517V25.7258H114.022V23.4878L115.039 25.7258H115.395L116.412 23.4809V25.7258H116.91V22.3584H116.419L115.21 25.0077Z" fill="#FE961B"/>
<path d="M119.754 25.0077L118.552 22.3584H118.062V25.7258H118.559V23.4878L119.584 25.7258H119.932L120.949 23.4809V25.7258H121.454V22.3584H120.956L119.754 25.0077Z" fill="#FE961B"/>
<path d="M124.655 24.4428C124.655 24.7426 124.583 24.9657 124.448 25.0981C124.313 25.2376 124.121 25.3003 123.872 25.3003C123.623 25.3003 123.431 25.2306 123.296 25.0912C123.154 24.9517 123.09 24.7356 123.09 24.4358V22.3164H122.585V24.4288C122.585 24.8611 122.706 25.1957 122.948 25.4188C123.182 25.6419 123.495 25.7535 123.872 25.7535C124.249 25.7535 124.562 25.6419 124.797 25.4188C125.039 25.1957 125.16 24.8681 125.16 24.4288V22.3164H124.655V24.4358V24.4428Z" fill="#FE961B"/>
<path d="M128.445 24.8402L126.746 22.3164H126.283V25.7256H126.788V23.1948L128.481 25.7256H128.943V22.3164H128.445V24.8402Z" fill="#FE961B"/>
<path d="M130.593 22.3164H130.088V25.7186H130.593V22.3164Z" fill="#FE961B"/>
<path d="M131.504 22.7556H132.421V25.7256H132.926V22.7556H133.844V22.3164H131.504V22.7556Z" fill="#FE961B"/>
<path d="M136.603 22.3164L135.807 23.899L135.017 22.3652L134.996 22.3164H134.427L135.55 24.401V25.7256H136.055V24.401L137.165 22.3164H136.603Z" fill="#FE961B"/>
<path d="M18.1345 6.0236C19.8314 6.0236 21.207 4.67517 21.207 3.0118C21.207 1.34843 19.8314 0 18.1345 0C16.4376 0 15.062 1.34843 15.062 3.0118C15.062 4.67517 16.4376 6.0236 18.1345 6.0236Z" fill="url(#paint0_linear_447_2164)"/>
<path opacity="0.88" d="M21.0434 2.0498C21.0647 2.18227 21.079 2.3217 21.079 2.46114C21.079 4.05767 19.7632 5.34745 18.1345 5.34745C16.5058 5.34745 15.19 4.05767 15.19 2.46114C15.19 2.3217 15.2043 2.18227 15.2256 2.0498C15.1189 2.34959 15.062 2.67726 15.062 3.01191C15.062 4.67816 16.4347 6.02371 18.1345 6.02371C19.8343 6.02371 21.207 4.67816 21.207 3.01191C21.207 2.67726 21.1501 2.34959 21.0434 2.0498Z" fill="url(#paint1_linear_447_2164)" style="mix-blend-mode:multiply"/>
<path d="M29.5781 1.11559C29.2083 1.49206 29.0376 2.07769 29.0803 2.66331C29.1585 3.8764 28.746 6.3932 24.1302 6.75573C22.032 6.96489 20.4673 6.8882 18.3408 6.91609C16.2142 6.8882 13.9383 6.96489 11.8331 6.75573C7.18878 6.38623 6.84028 3.84154 6.93985 2.63543C6.98964 2.07769 6.84028 1.51298 6.506 1.12953C4.5857 -1.04566 0.780643 1.83368 2.04662 5.87032C3.18458 9.57232 10.5671 9.53049 14.9909 9.65599C16.7974 9.62113 17.153 9.68387 18.3052 9.65599C19.4574 9.68387 19.2298 9.62113 21.0363 9.65599C25.069 9.73267 32.3804 10.0673 33.9806 5.87032C35.1897 1.69424 31.5127 -0.871365 29.571 1.11559H29.5781Z" fill="url(#paint2_linear_447_2164)"/>
<path opacity="0.88" d="M19.7349 6.90904C19.2869 6.90904 18.8317 6.90904 18.3409 6.90904C16.2144 6.88115 13.9384 6.95784 11.8332 6.74869C8.61138 6.49073 7.45919 5.18702 7.08936 4.00879C7.21026 4.85934 7.87882 6.7696 10.8233 8.07332C13.5117 9.26549 17.0252 9.5095 18.7534 9.64894C19.1731 9.64894 19.3651 9.63499 19.7989 9.63499L19.742 6.90207L19.7349 6.90904Z" fill="url(#paint3_linear_447_2164)" style="mix-blend-mode:multiply"/>
<path opacity="0.88" d="M16.3208 6.90904C16.7689 6.90904 17.2241 6.90904 17.7148 6.90904C19.8414 6.88115 22.1173 6.95784 24.2226 6.74869C27.4444 6.49073 28.5966 5.18702 28.9664 4.00879C28.8455 4.85934 28.177 6.7696 25.2325 8.07332C22.5441 9.26549 19.0306 9.5095 17.3023 9.64894C16.8827 9.64894 16.6907 9.63499 16.2568 9.63499L16.3137 6.90207L16.3208 6.90904Z" fill="url(#paint4_linear_447_2164)" style="mix-blend-mode:multiply"/>
<g opacity="0.44" style="mix-blend-mode:overlay">
<path d="M18.1204 1.4435C18.7568 1.4435 19.2726 1.20627 19.2726 0.913642C19.2726 0.621012 18.7568 0.383789 18.1204 0.383789C17.4841 0.383789 16.9683 0.621012 16.9683 0.913642C16.9683 1.20627 17.4841 1.4435 18.1204 1.4435Z" fill="white"/>
</g>
<g opacity="0.44" style="mix-blend-mode:overlay">
<path d="M33.1357 2.95703C33.3547 2.73076 33.1395 2.18214 32.655 1.73165C32.1706 1.28116 31.6003 1.09939 31.3813 1.32566C31.1624 1.55193 31.3776 2.10055 31.862 2.55104C32.3465 3.00153 32.9167 3.1833 33.1357 2.95703Z" fill="white"/>
</g>
<g opacity="0.44" style="mix-blend-mode:overlay">
<path d="M4.29124 2.54667C4.7757 2.09618 4.99091 1.54756 4.77194 1.32129C4.55297 1.09502 3.98273 1.27679 3.49828 1.72728C3.01382 2.17777 2.79861 2.7264 3.01758 2.95266C3.23655 3.17893 3.80679 2.99716 4.29124 2.54667Z" fill="white"/>
</g>
<path d="M0.140558 22.4076C-0.229279 24.0111 -0.26484 29.1632 5.24004 27.6782C11.4704 25.998 17.2313 14.6689 18.5826 13.9997C19.9339 13.3304 22.9566 15.4916 23.8599 18.6638C23.8599 18.6638 25.1188 22.3867 22.5868 22.791C17.6367 23.5858 18.7249 29.2329 24.0448 27.7549C26.4488 27.0856 29.1799 25.4055 29.6208 21.3479C30.3249 14.8502 21.3493 11.4759 19.1374 10.7229C16.9255 9.96998 14.4148 14.6132 10.3609 17.7017C6.30688 20.7901 4.16609 21.7941 2.84321 21.3688C1.52033 20.9435 0.510395 20.825 0.140558 22.4076Z" fill="url(#paint5_linear_447_2164)"/>
<path d="M22.6152 13.3654C19.6991 12.8146 18.5825 13.9928 18.5825 13.9928C19.941 13.3235 22.9566 15.4848 23.8598 18.6569C23.8598 18.6569 25.1187 22.3799 22.5867 22.7842C17.6366 23.579 18.7248 29.2261 24.0447 27.7481C26.4487 27.0788 29.1798 25.3986 29.6207 21.3411C29.8554 19.1589 29.002 17.3323 27.6791 15.8404C26.2495 14.3414 24.9195 13.8046 22.6152 13.3654Z" fill="url(#paint6_linear_447_2164)" style="mix-blend-mode:multiply"/>
<g opacity="0.16" style="mix-blend-mode:overlay">
<path d="M2.74345 24.1248C2.91729 23.3699 2.70101 22.6788 2.26038 22.5813C1.81975 22.4838 1.32162 23.0168 1.14778 23.7717C0.973935 24.5267 1.19021 25.2177 1.63084 25.3152C2.07147 25.4127 2.56961 24.8797 2.74345 24.1248Z" fill="white"/>
</g>
<g opacity="0.16" style="mix-blend-mode:overlay">
<path d="M21.8696 25.4674C22.0132 24.844 21.8345 24.2732 21.4705 24.1927C21.1065 24.1122 20.695 24.5523 20.5515 25.1758C20.4079 25.7993 20.5866 26.37 20.9506 26.4505C21.3146 26.5311 21.7261 26.0909 21.8696 25.4674Z" fill="white"/>
</g>
<defs>
<linearGradient id="paint0_linear_447_2164" x1="16.2498" y1="-2.06364" x2="19.5108" y2="7.07633" gradientUnits="userSpaceOnUse">
<stop stop-color="#FEEF94"/>
<stop offset="0.54" stop-color="#FFC335"/>
<stop offset="0.99" stop-color="#FE961B"/>
</linearGradient>
<linearGradient id="paint1_linear_447_2164" x1="18.1274" y1="2.04283" x2="18.2094" y2="10.9249" gradientUnits="userSpaceOnUse">
<stop stop-color="white"/>
<stop offset="0.99" stop-color="#FE961B"/>
</linearGradient>
<linearGradient id="paint2_linear_447_2164" x1="15.6026" y1="-4.59428" x2="19.7821" y2="11.4682" gradientUnits="userSpaceOnUse">
<stop stop-color="#FEEF94"/>
<stop offset="0.57" stop-color="#FFC335"/>
<stop offset="0.99" stop-color="#FE961B"/>
</linearGradient>
<linearGradient id="paint3_linear_447_2164" x1="12.5089" y1="6.88115" x2="6.76295" y2="7.21486" gradientUnits="userSpaceOnUse">
<stop stop-color="white"/>
<stop offset="0.99" stop-color="#FE961B"/>
</linearGradient>
<linearGradient id="paint4_linear_447_2164" x1="23.4402" y1="6.30947" x2="29.5921" y2="3.45616" gradientUnits="userSpaceOnUse">
<stop stop-color="white"/>
<stop offset="0.99" stop-color="#FE961B"/>
</linearGradient>
<linearGradient id="paint5_linear_447_2164" x1="-0.00168667" y1="19.3191" x2="29.6635" y2="19.3191" gradientUnits="userSpaceOnUse">
<stop stop-color="#4582B9"/>
<stop offset="1" stop-color="#0D468B"/>
</linearGradient>
<linearGradient id="paint6_linear_447_2164" x1="24.7133" y1="22.9097" x2="17.1647" y2="8.46468" gradientUnits="userSpaceOnUse">
<stop stop-color="white"/>
<stop offset="1" stop-color="#0D468B"/>
</linearGradient>
</defs>
</svg>
